@startuml
'https://plantuml.com/class-diagram





class App {
BufferedReader getFileInput(String path);
ArrayList<String> makeString(BufferedReader input);
change(String oldWord, String newWord, ArrayList<String> words);
writeToFile(File outputFile, ArrayList<String> words);
}

class file{
TextToTranslate
}

object TextToTranslate

file *--> App
App *--> TextToTranslate
TextToTranslate *--> App
App *--> outputFile



@enduml